<svg xmlns="http://www.w3.org/2000/svg" width="14.168" height="14.168" viewBox="0 0 14.168 14.168">
  <path id="search" d="M14.937,12.9,11.444,9.4a5.585,5.585,0,0,0,1.39-3.677A5.832,5.832,0,0,0,6.909,0,5.832,5.832,0,0,0,.984,5.72a5.832,5.832,0,0,0,5.925,5.72A6.007,6.007,0,0,0,10.3,10.405l3.519,3.534a.793.793,0,0,0,1.093.021A.729.729,0,0,0,14.937,12.9ZM6.909,1.492A4.311,4.311,0,0,1,11.288,5.72,4.311,4.311,0,0,1,6.909,9.948,4.311,4.311,0,0,1,2.53,5.72,4.311,4.311,0,0,1,6.909,1.492Z" transform="translate(-0.984)" fill="#1d377e"/>
</svg>
